<mxfile host="app.diagrams.net" agent="Mozilla/5.0 (Windows NT 10.0; Win64; x64) AppleWebKit/537.36 (KHTML, like Gecko) Chrome/128.0.0.0 Safari/537.36 Edg/128.0.0.0" version="24.7.12">
  <diagram name="Page-1" id="-cTbQ6uI88XnNYqkbfOJ">
    <mxGraphModel dx="1839" dy="434" grid="1" gridSize="10" guides="1" tooltips="1" connect="1" arrows="1" fold="1" page="1" pageScale="1" pageWidth="850" pageHeight="1100" math="0" shadow="0">
      <root>
        <mxCell id="0" />
        <mxCell id="1" parent="0" />
        <mxCell id="QleuZ_sIqg2X-7CIl005-3" value="Extract Logically Related Modified Lines" style="html=1;dashed=0;whiteSpace=wrap;fillColor=#fff2cc;strokeColor=#d6b656;" vertex="1" parent="1">
          <mxGeometry x="-190.25" y="64" width="100" height="50" as="geometry" />
        </mxCell>
        <mxCell id="QleuZ_sIqg2X-7CIl005-13" value="" style="group" vertex="1" connectable="0" parent="1">
          <mxGeometry x="-286" y="64" width="60" height="86" as="geometry" />
        </mxCell>
        <mxCell id="QleuZ_sIqg2X-7CIl005-2" value="Function-Level Diff" style="text;html=1;align=center;verticalAlign=middle;whiteSpace=wrap;rounded=0;" vertex="1" parent="QleuZ_sIqg2X-7CIl005-13">
          <mxGeometry y="56" width="60" height="30" as="geometry" />
        </mxCell>
        <mxCell id="QleuZ_sIqg2X-7CIl005-8" value="" style="html=1;verticalLabelPosition=bottom;align=center;labelBackgroundColor=#ffffff;verticalAlign=top;strokeWidth=2;strokeColor=#0080F0;shadow=0;dashed=0;shape=mxgraph.ios7.icons.document;" vertex="1" parent="QleuZ_sIqg2X-7CIl005-13">
          <mxGeometry x="14.25" width="31.5" height="46" as="geometry" />
        </mxCell>
        <mxCell id="QleuZ_sIqg2X-7CIl005-14" value="" style="group" vertex="1" connectable="0" parent="1">
          <mxGeometry x="-60.25" y="66" width="60" height="84" as="geometry" />
        </mxCell>
        <mxCell id="QleuZ_sIqg2X-7CIl005-10" value="" style="html=1;verticalLabelPosition=bottom;align=center;labelBackgroundColor=#ffffff;verticalAlign=top;strokeWidth=2;strokeColor=#0080F0;shadow=0;dashed=0;shape=mxgraph.ios7.icons.documents;" vertex="1" parent="QleuZ_sIqg2X-7CIl005-14">
          <mxGeometry x="10" width="40" height="46" as="geometry" />
        </mxCell>
        <mxCell id="QleuZ_sIqg2X-7CIl005-11" value="Diff Blocks" style="text;html=1;align=center;verticalAlign=middle;whiteSpace=wrap;rounded=0;" vertex="1" parent="QleuZ_sIqg2X-7CIl005-14">
          <mxGeometry y="54" width="60" height="30" as="geometry" />
        </mxCell>
        <mxCell id="QleuZ_sIqg2X-7CIl005-15" value="1. For each diff in the folders:&amp;nbsp;" style="text;html=1;align=center;verticalAlign=middle;whiteSpace=wrap;rounded=0;" vertex="1" parent="1">
          <mxGeometry x="-280.25" y="20" width="170" height="30" as="geometry" />
        </mxCell>
        <mxCell id="QleuZ_sIqg2X-7CIl005-16" value="" style="endArrow=classic;html=1;rounded=0;exitX=1;exitY=0.5;exitDx=0;exitDy=0;" edge="1" parent="1" source="QleuZ_sIqg2X-7CIl005-3" target="QleuZ_sIqg2X-7CIl005-10">
          <mxGeometry width="50" height="50" relative="1" as="geometry">
            <mxPoint x="99.75" y="250" as="sourcePoint" />
            <mxPoint x="149.75" y="200" as="targetPoint" />
          </mxGeometry>
        </mxCell>
        <mxCell id="QleuZ_sIqg2X-7CIl005-17" value="" style="endArrow=classic;html=1;rounded=0;exitX=1;exitY=0.565;exitDx=0;exitDy=0;exitPerimeter=0;entryX=0;entryY=0.5;entryDx=0;entryDy=0;" edge="1" parent="1" source="QleuZ_sIqg2X-7CIl005-8" target="QleuZ_sIqg2X-7CIl005-3">
          <mxGeometry width="50" height="50" relative="1" as="geometry">
            <mxPoint x="-80.25" y="99" as="sourcePoint" />
            <mxPoint x="-40.25" y="99" as="targetPoint" />
          </mxGeometry>
        </mxCell>
        <mxCell id="QleuZ_sIqg2X-7CIl005-25" value="is similar?" style="rhombus;whiteSpace=wrap;html=1;fillColor=#fff2cc;strokeColor=#d6b656;" vertex="1" parent="1">
          <mxGeometry x="-30" y="270" width="80" height="80" as="geometry" />
        </mxCell>
        <mxCell id="QleuZ_sIqg2X-7CIl005-26" value="2. Find similar diff blocks. We do this until diff blocks is empty" style="text;html=1;align=left;verticalAlign=middle;whiteSpace=wrap;rounded=0;" vertex="1" parent="1">
          <mxGeometry x="-280.25" y="180" width="210.25" height="30" as="geometry" />
        </mxCell>
        <mxCell id="QleuZ_sIqg2X-7CIl005-27" value="" style="group" vertex="1" connectable="0" parent="1">
          <mxGeometry x="-300" y="290" width="60" height="84" as="geometry" />
        </mxCell>
        <mxCell id="QleuZ_sIqg2X-7CIl005-28" value="" style="html=1;verticalLabelPosition=bottom;align=center;labelBackgroundColor=#ffffff;verticalAlign=top;strokeWidth=2;strokeColor=#0080F0;shadow=0;dashed=0;shape=mxgraph.ios7.icons.documents;" vertex="1" parent="QleuZ_sIqg2X-7CIl005-27">
          <mxGeometry x="10" width="40" height="46" as="geometry" />
        </mxCell>
        <mxCell id="QleuZ_sIqg2X-7CIl005-29" value="Diff Blocks" style="text;html=1;align=center;verticalAlign=middle;whiteSpace=wrap;rounded=0;" vertex="1" parent="QleuZ_sIqg2X-7CIl005-27">
          <mxGeometry y="54" width="60" height="30" as="geometry" />
        </mxCell>
        <mxCell id="QleuZ_sIqg2X-7CIl005-42" value="" style="endArrow=classic;html=1;rounded=0;exitX=1.005;exitY=0.504;exitDx=0;exitDy=0;exitPerimeter=0;entryX=0;entryY=0.5;entryDx=0;entryDy=0;" edge="1" parent="1" source="QleuZ_sIqg2X-7CIl005-28" target="QleuZ_sIqg2X-7CIl005-72">
          <mxGeometry width="50" height="50" relative="1" as="geometry">
            <mxPoint x="-240" y="327.49" as="sourcePoint" />
            <mxPoint x="-135.96850000000018" y="246.86200000000008" as="targetPoint" />
          </mxGeometry>
        </mxCell>
        <mxCell id="QleuZ_sIqg2X-7CIl005-43" value="" style="endArrow=classic;html=1;rounded=0;entryX=0;entryY=0.5;entryDx=0;entryDy=0;exitX=1.004;exitY=0.502;exitDx=0;exitDy=0;exitPerimeter=0;" edge="1" parent="1" source="QleuZ_sIqg2X-7CIl005-28" target="QleuZ_sIqg2X-7CIl005-70">
          <mxGeometry width="50" height="50" relative="1" as="geometry">
            <mxPoint x="-250" y="320" as="sourcePoint" />
            <mxPoint x="-136.15750000000003" y="363.18399999999997" as="targetPoint" />
          </mxGeometry>
        </mxCell>
        <mxCell id="QleuZ_sIqg2X-7CIl005-44" value="" style="endArrow=classic;html=1;rounded=0;exitX=1;exitY=0.5;exitDx=0;exitDy=0;" edge="1" parent="1" source="QleuZ_sIqg2X-7CIl005-72">
          <mxGeometry width="50" height="50" relative="1" as="geometry">
            <mxPoint x="-105.38200000000006" y="246.86200000000008" as="sourcePoint" />
            <mxPoint x="-30" y="310" as="targetPoint" />
          </mxGeometry>
        </mxCell>
        <mxCell id="QleuZ_sIqg2X-7CIl005-45" value="" style="endArrow=classic;html=1;rounded=0;exitX=1;exitY=0.5;exitDx=0;exitDy=0;" edge="1" parent="1" source="QleuZ_sIqg2X-7CIl005-70">
          <mxGeometry width="50" height="50" relative="1" as="geometry">
            <mxPoint x="-105.00400000000013" y="363.092" as="sourcePoint" />
            <mxPoint x="-30" y="310" as="targetPoint" />
          </mxGeometry>
        </mxCell>
        <mxCell id="QleuZ_sIqg2X-7CIl005-84" value="" style="edgeStyle=orthogonalEdgeStyle;rounded=0;orthogonalLoop=1;jettySize=auto;html=1;" edge="1" parent="1" source="QleuZ_sIqg2X-7CIl005-46" target="QleuZ_sIqg2X-7CIl005-55">
          <mxGeometry relative="1" as="geometry" />
        </mxCell>
        <mxCell id="QleuZ_sIqg2X-7CIl005-46" value="Generate Abstract Representation" style="html=1;dashed=0;whiteSpace=wrap;fillColor=#fff2cc;strokeColor=#d6b656;" vertex="1" parent="1">
          <mxGeometry x="90" y="285" width="100" height="50" as="geometry" />
        </mxCell>
        <mxCell id="QleuZ_sIqg2X-7CIl005-47" value="" style="endArrow=classic;html=1;rounded=0;exitX=1;exitY=0.5;exitDx=0;exitDy=0;entryX=0;entryY=0.5;entryDx=0;entryDy=0;" edge="1" parent="1" source="QleuZ_sIqg2X-7CIl005-25" target="QleuZ_sIqg2X-7CIl005-46">
          <mxGeometry width="50" height="50" relative="1" as="geometry">
            <mxPoint x="-95" y="373" as="sourcePoint" />
            <mxPoint x="-20" y="320" as="targetPoint" />
          </mxGeometry>
        </mxCell>
        <mxCell id="QleuZ_sIqg2X-7CIl005-48" value="" style="endArrow=classic;html=1;rounded=0;exitX=0.5;exitY=1;exitDx=0;exitDy=0;entryX=0.5;entryY=1;entryDx=0;entryDy=0;" edge="1" parent="1" source="QleuZ_sIqg2X-7CIl005-25" target="QleuZ_sIqg2X-7CIl005-70">
          <mxGeometry width="50" height="50" relative="1" as="geometry">
            <mxPoint x="50" y="410" as="sourcePoint" />
            <mxPoint x="-122" y="440" as="targetPoint" />
            <Array as="points">
              <mxPoint x="10" y="410" />
              <mxPoint x="-120" y="410" />
            </Array>
          </mxGeometry>
        </mxCell>
        <mxCell id="QleuZ_sIqg2X-7CIl005-49" value="No, choose another diff" style="text;html=1;align=center;verticalAlign=middle;whiteSpace=wrap;rounded=0;" vertex="1" parent="1">
          <mxGeometry x="10" y="400" width="70.25" height="30" as="geometry" />
        </mxCell>
        <mxCell id="QleuZ_sIqg2X-7CIl005-50" value="Yes" style="text;html=1;align=center;verticalAlign=middle;whiteSpace=wrap;rounded=0;" vertex="1" parent="1">
          <mxGeometry x="50" y="280" width="40" height="30" as="geometry" />
        </mxCell>
        <mxCell id="QleuZ_sIqg2X-7CIl005-75" value="" style="edgeStyle=orthogonalEdgeStyle;rounded=0;orthogonalLoop=1;jettySize=auto;html=1;" edge="1" parent="1" source="QleuZ_sIqg2X-7CIl005-51" target="QleuZ_sIqg2X-7CIl005-73">
          <mxGeometry relative="1" as="geometry" />
        </mxCell>
        <mxCell id="QleuZ_sIqg2X-7CIl005-103" style="edgeStyle=orthogonalEdgeStyle;rounded=0;orthogonalLoop=1;jettySize=auto;html=1;exitX=0.5;exitY=1;exitDx=0;exitDy=0;entryX=0.5;entryY=1;entryDx=0;entryDy=0;" edge="1" parent="1" source="QleuZ_sIqg2X-7CIl005-51" target="QleuZ_sIqg2X-7CIl005-29">
          <mxGeometry relative="1" as="geometry">
            <Array as="points">
              <mxPoint x="290" y="480" />
              <mxPoint x="-270" y="480" />
            </Array>
          </mxGeometry>
        </mxCell>
        <mxCell id="QleuZ_sIqg2X-7CIl005-51" value="Remove diff query and current diff from diff blocks" style="html=1;dashed=0;whiteSpace=wrap;" vertex="1" parent="1">
          <mxGeometry x="240" y="285" width="100" height="50" as="geometry" />
        </mxCell>
        <mxCell id="QleuZ_sIqg2X-7CIl005-52" value="" style="endArrow=classic;html=1;rounded=0;exitX=1;exitY=0.5;exitDx=0;exitDy=0;entryX=0;entryY=0.5;entryDx=0;entryDy=0;" edge="1" parent="1" source="QleuZ_sIqg2X-7CIl005-46" target="QleuZ_sIqg2X-7CIl005-51">
          <mxGeometry width="50" height="50" relative="1" as="geometry">
            <mxPoint x="60" y="320" as="sourcePoint" />
            <mxPoint x="100" y="320" as="targetPoint" />
          </mxGeometry>
        </mxCell>
        <mxCell id="QleuZ_sIqg2X-7CIl005-54" value="Abstract Representation" style="text;html=1;align=center;verticalAlign=middle;whiteSpace=wrap;rounded=0;" vertex="1" parent="1">
          <mxGeometry x="170" y="218" width="60" height="30" as="geometry" />
        </mxCell>
        <mxCell id="QleuZ_sIqg2X-7CIl005-106" value="" style="edgeStyle=orthogonalEdgeStyle;rounded=0;orthogonalLoop=1;jettySize=auto;html=1;entryX=0.5;entryY=0;entryDx=0;entryDy=0;exitX=0.392;exitY=-0.022;exitDx=0;exitDy=0;exitPerimeter=0;" edge="1" parent="1" source="QleuZ_sIqg2X-7CIl005-55" target="QleuZ_sIqg2X-7CIl005-73">
          <mxGeometry relative="1" as="geometry" />
        </mxCell>
        <mxCell id="QleuZ_sIqg2X-7CIl005-55" value="" style="html=1;verticalLabelPosition=bottom;align=center;labelBackgroundColor=#ffffff;verticalAlign=top;strokeWidth=2;strokeColor=#0080F0;shadow=0;dashed=0;shape=mxgraph.ios7.icons.document;" vertex="1" parent="1">
          <mxGeometry x="124.25" y="210" width="31.5" height="46" as="geometry" />
        </mxCell>
        <mxCell id="QleuZ_sIqg2X-7CIl005-61" value="3. If abstract representation is found:" style="text;html=1;align=left;verticalAlign=middle;whiteSpace=wrap;rounded=0;" vertex="1" parent="1">
          <mxGeometry x="-280.25" y="530" width="210.25" height="30" as="geometry" />
        </mxCell>
        <mxCell id="QleuZ_sIqg2X-7CIl005-62" value="Abstract Representation" style="text;html=1;align=center;verticalAlign=middle;whiteSpace=wrap;rounded=0;" vertex="1" parent="1">
          <mxGeometry x="-270" y="685" width="60" height="30" as="geometry" />
        </mxCell>
        <mxCell id="QleuZ_sIqg2X-7CIl005-93" value="" style="edgeStyle=orthogonalEdgeStyle;rounded=0;orthogonalLoop=1;jettySize=auto;html=1;" edge="1" parent="1" source="QleuZ_sIqg2X-7CIl005-63" target="QleuZ_sIqg2X-7CIl005-69">
          <mxGeometry relative="1" as="geometry" />
        </mxCell>
        <mxCell id="QleuZ_sIqg2X-7CIl005-63" value="" style="html=1;verticalLabelPosition=bottom;align=center;labelBackgroundColor=#ffffff;verticalAlign=top;strokeWidth=2;strokeColor=#0080F0;shadow=0;dashed=0;shape=mxgraph.ios7.icons.document;" vertex="1" parent="1">
          <mxGeometry x="-255.75" y="628" width="31.5" height="46" as="geometry" />
        </mxCell>
        <mxCell id="QleuZ_sIqg2X-7CIl005-64" value="" style="group" vertex="1" connectable="0" parent="1">
          <mxGeometry x="-270" y="748" width="60" height="84" as="geometry" />
        </mxCell>
        <mxCell id="QleuZ_sIqg2X-7CIl005-65" value="" style="html=1;verticalLabelPosition=bottom;align=center;labelBackgroundColor=#ffffff;verticalAlign=top;strokeWidth=2;strokeColor=#0080F0;shadow=0;dashed=0;shape=mxgraph.ios7.icons.documents;" vertex="1" parent="QleuZ_sIqg2X-7CIl005-64">
          <mxGeometry x="10" width="40" height="46" as="geometry" />
        </mxCell>
        <mxCell id="QleuZ_sIqg2X-7CIl005-66" value="Diff Blocks" style="text;html=1;align=center;verticalAlign=middle;whiteSpace=wrap;rounded=0;" vertex="1" parent="QleuZ_sIqg2X-7CIl005-64">
          <mxGeometry y="54" width="60" height="30" as="geometry" />
        </mxCell>
        <mxCell id="QleuZ_sIqg2X-7CIl005-96" style="edgeStyle=orthogonalEdgeStyle;rounded=0;orthogonalLoop=1;jettySize=auto;html=1;exitX=0.5;exitY=1;exitDx=0;exitDy=0;entryX=1;entryY=0.5;entryDx=0;entryDy=0;" edge="1" parent="1" source="QleuZ_sIqg2X-7CIl005-69" target="QleuZ_sIqg2X-7CIl005-71">
          <mxGeometry relative="1" as="geometry" />
        </mxCell>
        <mxCell id="QleuZ_sIqg2X-7CIl005-99" value="" style="edgeStyle=orthogonalEdgeStyle;rounded=0;orthogonalLoop=1;jettySize=auto;html=1;" edge="1" parent="1" source="QleuZ_sIqg2X-7CIl005-69" target="QleuZ_sIqg2X-7CIl005-98">
          <mxGeometry relative="1" as="geometry" />
        </mxCell>
        <mxCell id="QleuZ_sIqg2X-7CIl005-69" value="is represent?" style="rhombus;whiteSpace=wrap;html=1;fillColor=#fff2cc;strokeColor=#d6b656;" vertex="1" parent="1">
          <mxGeometry x="-60.25" y="611" width="80" height="80" as="geometry" />
        </mxCell>
        <mxCell id="QleuZ_sIqg2X-7CIl005-70" value="Choose diff besides diff query" style="html=1;dashed=0;whiteSpace=wrap;" vertex="1" parent="1">
          <mxGeometry x="-170" y="324" width="100" height="50" as="geometry" />
        </mxCell>
        <mxCell id="QleuZ_sIqg2X-7CIl005-95" value="" style="edgeStyle=orthogonalEdgeStyle;rounded=0;orthogonalLoop=1;jettySize=auto;html=1;entryX=0;entryY=0.5;entryDx=0;entryDy=0;" edge="1" parent="1" source="QleuZ_sIqg2X-7CIl005-71" target="QleuZ_sIqg2X-7CIl005-69">
          <mxGeometry relative="1" as="geometry" />
        </mxCell>
        <mxCell id="QleuZ_sIqg2X-7CIl005-71" value="Choose diff" style="html=1;dashed=0;whiteSpace=wrap;" vertex="1" parent="1">
          <mxGeometry x="-160.25" y="746" width="100" height="50" as="geometry" />
        </mxCell>
        <mxCell id="QleuZ_sIqg2X-7CIl005-72" value="Choose diff query" style="html=1;dashed=0;whiteSpace=wrap;" vertex="1" parent="1">
          <mxGeometry x="-170" y="240" width="100" height="50" as="geometry" />
        </mxCell>
        <mxCell id="QleuZ_sIqg2X-7CIl005-80" value="" style="edgeStyle=orthogonalEdgeStyle;rounded=0;orthogonalLoop=1;jettySize=auto;html=1;" edge="1" parent="1" source="QleuZ_sIqg2X-7CIl005-73" target="QleuZ_sIqg2X-7CIl005-76">
          <mxGeometry relative="1" as="geometry" />
        </mxCell>
        <mxCell id="QleuZ_sIqg2X-7CIl005-73" value="Put diff query and current diff into one cluster" style="html=1;dashed=0;whiteSpace=wrap;" vertex="1" parent="1">
          <mxGeometry x="385.75" y="285" width="100" height="50" as="geometry" />
        </mxCell>
        <mxCell id="QleuZ_sIqg2X-7CIl005-76" value="Cluster i" style="rounded=0;whiteSpace=wrap;html=1;fillColor=#FFFFFF;strokeColor=#0080f0;" vertex="1" parent="1">
          <mxGeometry x="520" y="290" width="70" height="40" as="geometry" />
        </mxCell>
        <mxCell id="QleuZ_sIqg2X-7CIl005-94" value="" style="edgeStyle=orthogonalEdgeStyle;rounded=0;orthogonalLoop=1;jettySize=auto;html=1;" edge="1" parent="1" source="QleuZ_sIqg2X-7CIl005-65" target="QleuZ_sIqg2X-7CIl005-71">
          <mxGeometry relative="1" as="geometry" />
        </mxCell>
        <mxCell id="QleuZ_sIqg2X-7CIl005-97" value="No, choose another diff" style="text;html=1;align=center;verticalAlign=middle;whiteSpace=wrap;rounded=0;" vertex="1" parent="1">
          <mxGeometry x="-10" y="718" width="70.25" height="30" as="geometry" />
        </mxCell>
        <mxCell id="QleuZ_sIqg2X-7CIl005-109" value="" style="edgeStyle=orthogonalEdgeStyle;rounded=0;orthogonalLoop=1;jettySize=auto;html=1;" edge="1" parent="1" source="QleuZ_sIqg2X-7CIl005-98" target="QleuZ_sIqg2X-7CIl005-104">
          <mxGeometry relative="1" as="geometry" />
        </mxCell>
        <mxCell id="QleuZ_sIqg2X-7CIl005-98" value="Refine Abstract Representation" style="html=1;dashed=0;whiteSpace=wrap;fillColor=#fff2cc;strokeColor=#d6b656;" vertex="1" parent="1">
          <mxGeometry x="70" y="626" width="100" height="50" as="geometry" />
        </mxCell>
        <mxCell id="QleuZ_sIqg2X-7CIl005-101" value="" style="edgeStyle=orthogonalEdgeStyle;rounded=0;orthogonalLoop=1;jettySize=auto;html=1;" edge="1" parent="1" source="QleuZ_sIqg2X-7CIl005-100">
          <mxGeometry relative="1" as="geometry">
            <mxPoint x="260.03999999999996" y="628" as="targetPoint" />
          </mxGeometry>
        </mxCell>
        <mxCell id="QleuZ_sIqg2X-7CIl005-100" value="Cluster i" style="rounded=0;whiteSpace=wrap;html=1;fillColor=#FFFFFF;strokeColor=#0080f0;" vertex="1" parent="1">
          <mxGeometry x="225" y="550" width="70" height="40" as="geometry" />
        </mxCell>
        <mxCell id="QleuZ_sIqg2X-7CIl005-102" value="Yes" style="text;html=1;align=center;verticalAlign=middle;whiteSpace=wrap;rounded=0;" vertex="1" parent="1">
          <mxGeometry x="19.75" y="618" width="40" height="30" as="geometry" />
        </mxCell>
        <mxCell id="QleuZ_sIqg2X-7CIl005-112" style="edgeStyle=orthogonalEdgeStyle;rounded=0;orthogonalLoop=1;jettySize=auto;html=1;exitX=1;exitY=0.5;exitDx=0;exitDy=0;entryX=1;entryY=0.5;entryDx=0;entryDy=0;" edge="1" parent="1" source="QleuZ_sIqg2X-7CIl005-104" target="QleuZ_sIqg2X-7CIl005-100">
          <mxGeometry relative="1" as="geometry" />
        </mxCell>
        <mxCell id="QleuZ_sIqg2X-7CIl005-104" value="Update cluster" style="html=1;dashed=0;whiteSpace=wrap;" vertex="1" parent="1">
          <mxGeometry x="210" y="626" width="100" height="50" as="geometry" />
        </mxCell>
        <mxCell id="QleuZ_sIqg2X-7CIl005-108" style="edgeStyle=orthogonalEdgeStyle;rounded=0;orthogonalLoop=1;jettySize=auto;html=1;exitX=0.5;exitY=0;exitDx=0;exitDy=0;entryX=0.443;entryY=0.004;entryDx=0;entryDy=0;entryPerimeter=0;" edge="1" parent="1" source="QleuZ_sIqg2X-7CIl005-98" target="QleuZ_sIqg2X-7CIl005-63">
          <mxGeometry relative="1" as="geometry">
            <Array as="points">
              <mxPoint x="120" y="570" />
              <mxPoint x="-242" y="570" />
            </Array>
          </mxGeometry>
        </mxCell>
        <mxCell id="QleuZ_sIqg2X-7CIl005-113" value="4. Infer metavariable kinds in each cluster" style="text;html=1;align=left;verticalAlign=middle;whiteSpace=wrap;rounded=0;" vertex="1" parent="1">
          <mxGeometry x="-280.25" y="870" width="490.25" height="30" as="geometry" />
        </mxCell>
        <mxCell id="QleuZ_sIqg2X-7CIl005-114" value="" style="group" vertex="1" connectable="0" parent="1">
          <mxGeometry x="-270" y="920" width="70" height="84" as="geometry" />
        </mxCell>
        <mxCell id="QleuZ_sIqg2X-7CIl005-115" value="" style="html=1;verticalLabelPosition=bottom;align=center;labelBackgroundColor=#ffffff;verticalAlign=top;strokeWidth=2;strokeColor=#0080F0;shadow=0;dashed=0;shape=mxgraph.ios7.icons.documents;" vertex="1" parent="QleuZ_sIqg2X-7CIl005-114">
          <mxGeometry x="10" width="40" height="46" as="geometry" />
        </mxCell>
        <mxCell id="QleuZ_sIqg2X-7CIl005-116" value="All diffs in the cluster i" style="text;html=1;align=center;verticalAlign=middle;whiteSpace=wrap;rounded=0;" vertex="1" parent="QleuZ_sIqg2X-7CIl005-114">
          <mxGeometry y="54" width="70" height="30" as="geometry" />
        </mxCell>
        <mxCell id="QleuZ_sIqg2X-7CIl005-121" style="edgeStyle=orthogonalEdgeStyle;rounded=0;orthogonalLoop=1;jettySize=auto;html=1;entryX=0.5;entryY=1;entryDx=0;entryDy=0;" edge="1" parent="1" source="QleuZ_sIqg2X-7CIl005-117" target="QleuZ_sIqg2X-7CIl005-119">
          <mxGeometry relative="1" as="geometry" />
        </mxCell>
        <mxCell id="QleuZ_sIqg2X-7CIl005-117" value="" style="html=1;verticalLabelPosition=bottom;align=center;labelBackgroundColor=#ffffff;verticalAlign=top;strokeWidth=2;strokeColor=#0080F0;shadow=0;dashed=0;shape=mxgraph.ios7.icons.document;" vertex="1" parent="1">
          <mxGeometry x="-257.5" y="1030" width="31.5" height="46" as="geometry" />
        </mxCell>
        <mxCell id="QleuZ_sIqg2X-7CIl005-118" value="Abstract Representation" style="text;html=1;align=center;verticalAlign=middle;whiteSpace=wrap;rounded=0;" vertex="1" parent="1">
          <mxGeometry x="-270" y="1090" width="60" height="30" as="geometry" />
        </mxCell>
        <mxCell id="QleuZ_sIqg2X-7CIl005-119" value="Infer metavariable kinds" style="html=1;dashed=0;whiteSpace=wrap;fillColor=#fff2cc;strokeColor=#d6b656;" vertex="1" parent="1">
          <mxGeometry x="-160.25" y="970" width="100" height="50" as="geometry" />
        </mxCell>
        <mxCell id="QleuZ_sIqg2X-7CIl005-120" style="edgeStyle=orthogonalEdgeStyle;rounded=0;orthogonalLoop=1;jettySize=auto;html=1;" edge="1" parent="1" source="QleuZ_sIqg2X-7CIl005-115" target="QleuZ_sIqg2X-7CIl005-119">
          <mxGeometry relative="1" as="geometry" />
        </mxCell>
        <mxCell id="QleuZ_sIqg2X-7CIl005-127" value="" style="edgeStyle=orthogonalEdgeStyle;rounded=0;orthogonalLoop=1;jettySize=auto;html=1;" edge="1" parent="1" source="QleuZ_sIqg2X-7CIl005-122" target="QleuZ_sIqg2X-7CIl005-126">
          <mxGeometry relative="1" as="geometry" />
        </mxCell>
        <mxCell id="QleuZ_sIqg2X-7CIl005-122" value="Generate Semantic patches" style="html=1;dashed=0;whiteSpace=wrap;" vertex="1" parent="1">
          <mxGeometry x="-10.250000000000004" y="970" width="100" height="50" as="geometry" />
        </mxCell>
        <mxCell id="QleuZ_sIqg2X-7CIl005-123" style="edgeStyle=orthogonalEdgeStyle;rounded=0;orthogonalLoop=1;jettySize=auto;html=1;entryX=0;entryY=0.5;entryDx=0;entryDy=0;" edge="1" parent="1" source="QleuZ_sIqg2X-7CIl005-119" target="QleuZ_sIqg2X-7CIl005-122">
          <mxGeometry relative="1" as="geometry">
            <mxPoint x="-78.50999999999999" y="1063" as="sourcePoint" />
            <mxPoint x="-10" y="1005" as="targetPoint" />
          </mxGeometry>
        </mxCell>
        <mxCell id="QleuZ_sIqg2X-7CIl005-125" style="edgeStyle=orthogonalEdgeStyle;rounded=0;orthogonalLoop=1;jettySize=auto;html=1;entryX=0.573;entryY=1.036;entryDx=0;entryDy=0;entryPerimeter=0;" edge="1" parent="1" source="QleuZ_sIqg2X-7CIl005-117" target="QleuZ_sIqg2X-7CIl005-122">
          <mxGeometry relative="1" as="geometry" />
        </mxCell>
        <mxCell id="QleuZ_sIqg2X-7CIl005-126" value="Semantic Patch for cluster i" style="rounded=0;whiteSpace=wrap;html=1;fillColor=#FFFFFF;strokeColor=#0080f0;" vertex="1" parent="1">
          <mxGeometry x="140" y="975" width="70" height="40" as="geometry" />
        </mxCell>
        <mxCell id="QleuZ_sIqg2X-7CIl005-128" value="5. Assembles semantic patches from all clusters into 1" style="text;html=1;align=left;verticalAlign=middle;whiteSpace=wrap;rounded=0;" vertex="1" parent="1">
          <mxGeometry x="-286" y="1140" width="490.25" height="30" as="geometry" />
        </mxCell>
        <mxCell id="QleuZ_sIqg2X-7CIl005-129" value="" style="group" vertex="1" connectable="0" parent="1">
          <mxGeometry x="-275" y="1180" width="70" height="84" as="geometry" />
        </mxCell>
        <mxCell id="QleuZ_sIqg2X-7CIl005-130" value="" style="html=1;verticalLabelPosition=bottom;align=center;labelBackgroundColor=#ffffff;verticalAlign=top;strokeWidth=2;strokeColor=#0080F0;shadow=0;dashed=0;shape=mxgraph.ios7.icons.documents;" vertex="1" parent="QleuZ_sIqg2X-7CIl005-129">
          <mxGeometry x="10" width="40" height="46" as="geometry" />
        </mxCell>
        <mxCell id="QleuZ_sIqg2X-7CIl005-131" value="Semantic Patches" style="text;html=1;align=center;verticalAlign=middle;whiteSpace=wrap;rounded=0;" vertex="1" parent="QleuZ_sIqg2X-7CIl005-129">
          <mxGeometry y="54" width="70" height="30" as="geometry" />
        </mxCell>
        <mxCell id="QleuZ_sIqg2X-7CIl005-135" value="" style="edgeStyle=orthogonalEdgeStyle;rounded=0;orthogonalLoop=1;jettySize=auto;html=1;" edge="1" parent="1" source="QleuZ_sIqg2X-7CIl005-132" target="QleuZ_sIqg2X-7CIl005-134">
          <mxGeometry relative="1" as="geometry" />
        </mxCell>
        <mxCell id="QleuZ_sIqg2X-7CIl005-132" value="Test coverage" style="html=1;dashed=0;whiteSpace=wrap;" vertex="1" parent="1">
          <mxGeometry x="-160.25" y="1178" width="100" height="50" as="geometry" />
        </mxCell>
        <mxCell id="QleuZ_sIqg2X-7CIl005-133" style="edgeStyle=orthogonalEdgeStyle;rounded=0;orthogonalLoop=1;jettySize=auto;html=1;entryX=0;entryY=0.5;entryDx=0;entryDy=0;" edge="1" parent="1" source="QleuZ_sIqg2X-7CIl005-130" target="QleuZ_sIqg2X-7CIl005-132">
          <mxGeometry relative="1" as="geometry" />
        </mxCell>
        <mxCell id="QleuZ_sIqg2X-7CIl005-138" value="" style="edgeStyle=orthogonalEdgeStyle;rounded=0;orthogonalLoop=1;jettySize=auto;html=1;" edge="1" parent="1" source="QleuZ_sIqg2X-7CIl005-134" target="QleuZ_sIqg2X-7CIl005-137">
          <mxGeometry relative="1" as="geometry" />
        </mxCell>
        <mxCell id="QleuZ_sIqg2X-7CIl005-134" value="Assemble semantic patches" style="html=1;dashed=0;whiteSpace=wrap;" vertex="1" parent="1">
          <mxGeometry x="-160.25" y="1260" width="100" height="50" as="geometry" />
        </mxCell>
        <mxCell id="QleuZ_sIqg2X-7CIl005-136" style="edgeStyle=orthogonalEdgeStyle;rounded=0;orthogonalLoop=1;jettySize=auto;html=1;exitX=0.5;exitY=1;exitDx=0;exitDy=0;entryX=0;entryY=0.5;entryDx=0;entryDy=0;" edge="1" parent="1" source="QleuZ_sIqg2X-7CIl005-131" target="QleuZ_sIqg2X-7CIl005-134">
          <mxGeometry relative="1" as="geometry" />
        </mxCell>
        <mxCell id="QleuZ_sIqg2X-7CIl005-137" value="Final Semantic Patch" style="rounded=0;whiteSpace=wrap;html=1;fillColor=#FFFFFF;strokeColor=#0080f0;" vertex="1" parent="1">
          <mxGeometry x="-10.25" y="1265" width="90" height="40" as="geometry" />
        </mxCell>
        <mxCell id="QleuZ_sIqg2X-7CIl005-139" value="Cover case for really unique diff-&amp;gt; put in the a new cluster&amp;nbsp;" style="text;html=1;align=center;verticalAlign=middle;resizable=0;points=[];autosize=1;strokeColor=none;fillColor=none;" vertex="1" parent="1">
          <mxGeometry x="-265.25" y="440" width="330" height="30" as="geometry" />
        </mxCell>
        <mxCell id="QleuZ_sIqg2X-7CIl005-140" value="keep in mind: can we generate the sp directly here?&lt;div&gt;&lt;br&gt;&lt;/div&gt;" style="text;html=1;align=center;verticalAlign=middle;whiteSpace=wrap;rounded=0;" vertex="1" parent="1">
          <mxGeometry x="-80" y="940" width="60" height="30" as="geometry" />
        </mxCell>
        <mxCell id="QleuZ_sIqg2X-7CIl005-143" value="add check if the ar do not cover diff from other ARs" style="text;html=1;align=center;verticalAlign=middle;whiteSpace=wrap;rounded=0;" vertex="1" parent="1">
          <mxGeometry x="-80" y="570" width="60" height="30" as="geometry" />
        </mxCell>
        <mxCell id="QleuZ_sIqg2X-7CIl005-144" value="add check if the ar do not cover diff from other ARs" style="text;html=1;align=center;verticalAlign=middle;whiteSpace=wrap;rounded=0;" vertex="1" parent="1">
          <mxGeometry x="145" y="350" width="60" height="30" as="geometry" />
        </mxCell>
        <mxCell id="QleuZ_sIqg2X-7CIl005-145" value="the ar should fully disjoint or subset of each other&amp;nbsp;" style="text;html=1;align=center;verticalAlign=middle;whiteSpace=wrap;rounded=0;" vertex="1" parent="1">
          <mxGeometry x="79.75" y="160" width="60" height="30" as="geometry" />
        </mxCell>
        <mxCell id="QleuZ_sIqg2X-7CIl005-146" value="if possible, optimize by creating a new cluster here" style="text;html=1;align=center;verticalAlign=middle;whiteSpace=wrap;rounded=0;" vertex="1" parent="1">
          <mxGeometry x="79.75" y="450" width="60" height="30" as="geometry" />
        </mxCell>
      </root>
    </mxGraphModel>
  </diagram>
</mxfile>
